<svg width="20" height="20" viewBox="0 0 20 20" fill="none" xmlns="http://www.w3.org/2000/svg">
    <path d="M9.99609 6.14307L9.99923 19.0002" stroke="white" stroke-width="0.8" stroke-miterlimit="10" stroke-linecap="round" stroke-linejoin="round"/>
    <path d="M10 18.9999C12.5696 18.9846 18.1429 17.2856 19 9.57129C16.4286 9.57129 10 11.7141 10 18.1427" stroke="white" stroke-width="0.8" stroke-miterlimit="10" stroke-linecap="round" stroke-linejoin="round"/>
    <path d="M10 18.9999C7.43038 18.9846 1.85714 17.2856 1 9.57129C3.57143 9.57129 10 11.7141 10 18.1427" stroke="white" stroke-width="0.8" stroke-miterlimit="10" stroke-linecap="round" stroke-linejoin="round"/>
    <path d="M9.99944 6.14293C9.99905 2.28579 5.28516 2.71436 5.28516 2.71436C5.68551 3.31532 5.89887 5.03988 6.01257 6.70636C6.15557 8.80221 7.89558 10.4286 9.99631 10.4286H10.0026C12.1033 10.4286 13.8433 8.80221 13.9863 6.70636C14.1 5.03988 14.3134 3.31532 14.7137 2.71436C14.7137 2.71436 9.99905 2.28579 9.99944 6.14293Z" stroke="white" stroke-width="0.8" stroke-miterlimit="10" stroke-linecap="round" stroke-linejoin="round"/>
    <path d="M7.67383 2.99293L9.99892 1L12.394 2.9702" stroke="white" stroke-width="0.8" stroke-miterlimit="10" stroke-linecap="round" stroke-linejoin="round"/>
</svg>
