<svg width="20" height="20" viewBox="0 0 20 20" fill="none" xmlns="http://www.w3.org/2000/svg">
    <path d="M19.7872 5.23683C19.7298 5.15542 19.6538 5.08896 19.5654 5.04307C19.4771 4.99718 19.379 4.97319 19.2794 4.97312H6.01503L5.01097 1.51062C4.61722 0.147188 3.68158 0 3.29783 0H0.620644C0.2775 0 0 0.277812 0 0.620625C0 0.963437 0.277812 1.24123 0.620625 1.24123H3.2975C3.38218 1.24123 3.64062 1.24123 3.81689 1.85029L7.27095 14.5443C7.34595 14.8122 7.59001 14.9971 7.86843 14.9971H16.3053C16.5672 14.9971 16.8009 14.8331 16.8894 14.5865L19.8631 5.80371C19.9316 5.6134 19.9031 5.40152 19.7872 5.23683H19.7872ZM15.8685 13.7562H8.33951L6.36388 6.21469H18.397L15.8685 13.7562ZM14.6376 16.255C13.7745 16.255 13.0751 16.9544 13.0751 17.8175C13.0751 18.6806 13.7745 19.38 14.6376 19.38C15.5007 19.38 16.2001 18.6806 16.2001 17.8175C16.2001 16.9544 15.5007 16.255 14.6376 16.255ZM9.01263 16.255C8.14951 16.255 7.45013 16.9544 7.45013 17.8175C7.45013 18.6806 8.14951 19.38 9.01263 19.38C9.87575 19.38 10.5751 18.6806 10.5751 17.8175C10.5751 16.9544 9.87575 16.255 9.01263 16.255Z" fill="white"/>
</svg>
