<svg width="16" height="16" viewBox="0 0 16 16" fill="none" xmlns="http://www.w3.org/2000/svg">
    <path d="M7.99707 5.10742L7.99942 14.7503" stroke="#9DCA39" stroke-width="0.8" stroke-miterlimit="10" stroke-linecap="round" stroke-linejoin="round"/>
    <path d="M8 14.7501C9.92721 14.7387 14.1071 13.4644 14.75 7.67871C12.8214 7.67871 8 9.28585 8 14.1073" stroke="#9DCA39" stroke-width="0.8" stroke-miterlimit="10" stroke-linecap="round" stroke-linejoin="round"/>
    <path d="M8 14.7501C6.07279 14.7387 1.89286 13.4644 1.25 7.67871C3.17857 7.67871 8 9.28585 8 14.1073" stroke="#9DCA39" stroke-width="0.8" stroke-miterlimit="10" stroke-linecap="round" stroke-linejoin="round"/>
    <path d="M7.99958 5.10745C7.99929 2.21459 4.46387 2.53602 4.46387 2.53602C4.76414 2.98674 4.92415 4.28015 5.00943 5.53001C5.11668 7.1019 6.42169 8.32173 7.99723 8.32173H8.00193C9.57748 8.32173 10.8825 7.1019 10.9897 5.53001C11.075 4.28015 11.235 2.98674 11.5353 2.53602C11.5353 2.53602 7.99929 2.21459 7.99958 5.10745Z" stroke="#9DCA39" stroke-width="0.8" stroke-miterlimit="10" stroke-linecap="round" stroke-linejoin="round"/>
    <path d="M6.25586 2.7447L7.99968 1.25L9.79598 2.72765" stroke="#9DCA39" stroke-width="0.8" stroke-miterlimit="10" stroke-linecap="round" stroke-linejoin="round"/>
</svg>
