<svg width="20" height="20" viewBox="0 0 20 20" fill="none" xmlns="http://www.w3.org/2000/svg">
<path d="M3.92024 4.5649C3.86988 3.89443 4.08578 3.36982 4.63277 3.02998C5.21615 2.66762 5.79305 2.74183 6.34453 3.13848C6.44176 2.96396 6.53002 2.7884 6.63323 2.62258C6.79927 2.35592 7.04709 2.36053 7.20764 2.63025C7.30786 2.79864 7.40061 2.97112 7.5103 3.16715C7.75413 2.95474 7.98898 2.75104 8.22283 2.54581C8.6671 2.1558 9.10988 1.76427 9.55415 1.37478C10.1216 0.877298 10.876 0.874227 11.4439 1.37068C12.0547 1.90399 12.6621 2.44191 13.2709 2.97726C13.3367 3.0351 13.404 3.09088 13.4898 3.16356C13.591 2.98699 13.6862 2.81962 13.7834 2.65277C13.9585 2.35183 14.2043 2.34927 14.3853 2.6497C14.48 2.80632 14.5638 2.96959 14.6575 3.13951C15.1896 2.75053 15.7565 2.66966 16.3314 3.00541C16.9063 3.34116 17.1342 3.88061 17.0828 4.56439C17.2533 4.56439 17.4199 4.56183 17.5864 4.5649C17.9783 4.57207 18.1045 4.79368 17.9115 5.13813C17.6453 5.61309 17.374 6.08499 17.1142 6.56404C17.0719 6.64235 17.0599 6.75136 17.0669 6.84298C17.0988 7.25448 17.0015 7.62247 16.7702 7.96129C15.8617 9.29405 14.9577 10.6294 14.0522 11.9642C13.6792 12.5133 13.3068 13.063 12.9278 13.6219C13.3621 13.8369 13.5132 14.1977 13.4898 14.6701C13.4713 15.0458 13.4863 15.423 13.4858 15.7997C13.4848 16.4835 12.9513 16.9006 12.305 16.724C12.2716 16.7148 12.2367 16.7102 12.1814 16.6995C12.3504 17.4037 12.5145 18.0875 12.679 18.7702C12.7428 19.0359 12.8111 19.3005 12.873 19.5661C12.9363 19.8384 12.8116 19.9991 12.5359 19.9991C11.1802 20.0001 9.8244 20.0001 8.46865 19.9991C8.18095 19.9991 8.06327 19.8415 8.13308 19.5513C8.35547 18.6249 8.57885 17.6985 8.80123 16.7721C8.80522 16.7552 8.80572 16.7373 8.80472 16.744C8.60328 16.744 8.39885 16.7742 8.20638 16.7378C7.79751 16.6611 7.51778 16.288 7.51529 15.8606C7.5128 15.4583 7.52925 15.0555 7.5108 14.6543C7.48936 14.1859 7.64493 13.8338 8.07375 13.6214C7.52576 12.8143 6.98276 12.0138 6.43927 11.2133C5.71128 10.1406 4.98429 9.06731 4.25531 7.99558C4.0045 7.62656 3.8614 7.23452 3.96412 6.77491C3.97658 6.71912 3.9342 6.64286 3.90179 6.58451C3.63104 6.09727 3.3558 5.61309 3.08405 5.12687C2.90106 4.79983 3.02322 4.57463 3.38871 4.5649C3.56223 4.56081 3.73575 4.5649 3.92024 4.5649ZM4.62229 7.32562C4.61282 7.33892 4.60335 7.35223 4.59387 7.36554C4.64623 7.45613 4.6926 7.55082 4.75094 7.6368C6.08176 9.59858 7.41307 11.5604 8.74838 13.5185C8.80073 13.5948 8.88749 13.6639 8.97226 13.6967C9.26794 13.8103 9.56811 13.9111 9.87028 14.0063C9.94058 14.0283 10.0293 14.0288 10.0996 14.0063C10.3699 13.9198 10.6342 13.9198 10.9039 14.0073C10.9737 14.0298 11.0625 14.0283 11.1328 14.0058C11.4349 13.9111 11.7351 13.8103 12.0313 13.6982C12.1121 13.668 12.1943 13.605 12.2447 13.5339C12.5135 13.1516 12.7683 12.7585 13.0375 12.3767C13.1128 12.2697 13.1263 12.2011 13.0226 12.1065C12.4656 11.5992 11.9415 11.048 11.3532 10.5828C9.65886 9.24287 7.74216 8.33849 5.71726 7.6629C5.35527 7.54211 4.98728 7.4377 4.62229 7.32562ZM13.4923 11.7078C14.4845 10.2189 15.4982 8.78121 16.4371 7.28467C14.4212 7.6455 12.5424 8.34873 10.7464 9.37543C11.7615 10.0398 12.6635 10.8065 13.4923 11.7078ZM12.1829 19.3808C12.1829 19.346 12.1869 19.3261 12.1824 19.3082C11.9595 18.3818 11.7361 17.4559 11.5122 16.5295C11.5053 16.5004 11.4933 16.4528 11.4758 16.4487C11.2784 16.4 11.1108 16.2567 10.8755 16.3192C10.6726 16.3729 10.4392 16.3975 10.2398 16.3478C10.0313 16.2961 9.8598 16.3258 9.66933 16.3873C9.54617 16.4267 9.49033 16.4896 9.46141 16.615C9.31282 17.2589 9.15675 17.9007 9.00317 18.5435C8.93736 18.8184 8.87104 19.0932 8.80173 19.3803C9.94257 19.3808 11.0545 19.3808 12.1829 19.3808ZM13.1796 3.72502C13.1298 3.67691 13.0954 3.64057 13.0585 3.60782C12.3933 3.0223 11.7291 2.43628 11.062 1.85332C10.7005 1.53754 10.2966 1.54163 9.9336 1.85947C9.5367 2.20699 9.1398 2.55553 8.74389 2.90407C8.43824 3.17278 8.13358 3.44301 7.82194 3.71837C7.87131 3.80742 7.91319 3.88419 7.95657 3.95994C7.99845 4.03415 8.04183 4.10786 8.09917 4.20766C8.13956 3.75266 8.32006 3.65541 8.68505 3.86014C8.82517 3.93845 8.96129 4.02443 9.10439 4.1099C9.3926 3.49982 9.84185 3.14258 10.5105 3.14565C11.1777 3.14872 11.6209 3.51467 11.9007 4.1099C12.0926 3.99884 12.2711 3.88163 12.4606 3.78951C12.67 3.68715 12.8675 3.81356 12.8899 4.04797C12.8939 4.08841 12.8949 4.12935 12.8999 4.21738C13.0051 4.03108 13.0884 3.88471 13.1796 3.72502ZM8.70949 4.59766C8.70949 5.80042 8.70849 6.96018 8.71348 8.11995C8.71348 8.16755 8.76284 8.23408 8.80722 8.25865C9.22606 8.49409 9.64889 8.72235 10.0707 8.95216C10.2048 9.02535 10.507 8.85901 10.4985 8.70546C10.4686 8.16601 10.4826 7.61582 10.3794 7.0907C10.1749 6.0466 9.59553 5.23538 8.70949 4.59766ZM12.2926 4.60227C11.6374 5.06801 11.1687 5.6392 10.866 6.35062C10.8446 6.40026 10.859 6.4714 10.8705 6.52975C10.9328 6.84093 11.0196 7.14802 11.0595 7.46176C11.1009 7.78625 11.0979 8.11688 11.1143 8.45314C11.4853 8.2781 11.8513 8.10869 12.2133 7.93058C12.2512 7.91215 12.2891 7.84562 12.2896 7.80109C12.2936 6.74932 12.2926 5.69652 12.2926 4.60227ZM8.07674 7.85176C8.0887 7.84767 8.10017 7.84357 8.11214 7.83948C8.11214 7.08097 8.11413 6.32247 8.10915 5.56396C8.10865 5.49333 8.07325 5.41758 8.03735 5.35361C7.70227 4.7512 7.36371 4.15085 7.02515 3.54998C6.99623 3.49829 6.96033 3.4512 6.91146 3.37648C6.58486 4.11502 6.44076 4.85101 6.54298 5.62947C6.54896 5.67298 6.58536 5.71955 6.61977 5.75077C7.0436 6.13463 7.37617 6.59168 7.65141 7.09633C7.79003 7.3507 7.93513 7.60046 8.07674 7.85176ZM12.8899 7.6107C12.9074 7.62452 12.9253 7.63834 12.9428 7.65215C13.0101 7.58971 13.0993 7.54007 13.1412 7.46278C13.4903 6.82814 13.8538 6.20577 14.4062 5.72723C14.4416 5.69652 14.4641 5.6264 14.4621 5.57624C14.4461 5.15809 14.4526 4.73585 14.3928 4.32384C14.3469 4.00652 14.2153 3.70199 14.1215 3.39183C14.1011 3.39541 14.0801 3.399 14.0597 3.40258C13.6787 4.08022 13.2978 4.75786 12.9183 5.43652C12.9009 5.46774 12.8904 5.50817 12.8904 5.54451C12.8894 6.23341 12.8899 6.9218 12.8899 7.6107ZM3.83597 5.21695C4.09625 5.68065 4.33858 6.12337 4.59487 6.55739C4.64274 6.63877 4.73947 6.71144 4.82872 6.74164C5.34679 6.91566 5.87034 7.07176 6.38941 7.24117C6.64669 7.32511 6.899 7.42491 7.17025 7.52369C6.49661 6.0379 5.02568 5.24101 3.83597 5.21695ZM17.1566 5.23179C16.1868 5.08081 14.1225 6.4105 14.0178 7.23605C14.3384 7.14137 14.6575 7.04054 14.9801 6.95404C15.3032 6.86703 15.6264 6.76467 15.9559 6.72322C16.2656 6.68432 16.4531 6.5492 16.5877 6.26156C16.7532 5.90943 16.9627 5.57829 17.1566 5.23179ZM10.498 5.6218C10.7638 5.29526 11.0445 4.95849 11.3133 4.61199C11.3527 4.56132 11.3592 4.45538 11.3387 4.38833C11.1398 3.73014 10.3131 3.54691 9.85083 4.05412C9.59454 4.33561 9.60152 4.49018 9.83986 4.77372C10.0767 5.05573 10.2936 5.35668 10.498 5.6218ZM5.86685 5.14939C5.93516 4.74353 6.01095 4.31309 6.07527 3.88112C6.08425 3.82022 6.05583 3.73219 6.01394 3.68715C5.75466 3.40872 5.30341 3.35344 4.96734 3.54844C4.62628 3.746 4.44179 4.16671 4.54052 4.54187C4.55548 4.59971 4.60385 4.6729 4.65421 4.69286C5.06756 4.85561 5.48491 5.00711 5.86685 5.14939ZM15.1362 5.14683C15.5157 5.00609 15.9225 4.8592 16.3249 4.70105C16.3818 4.67853 16.4416 4.60738 16.4585 4.54699C16.5628 4.17388 16.3798 3.75163 16.0392 3.55152C15.6957 3.34986 15.2379 3.40923 14.9781 3.69533C14.9417 3.73526 14.9088 3.80742 14.9168 3.85707C14.9866 4.29927 15.0659 4.73994 15.1362 5.14683ZM9.45792 15.8063C9.34972 15.4844 9.34971 15.4844 9.05702 15.4772C8.83813 15.4721 8.71048 15.3575 8.71048 15.1666C8.70998 14.9746 8.83265 14.8656 9.05702 14.858C9.37365 14.8472 9.37365 14.8472 9.44944 14.5207C9.15126 14.4188 8.85359 14.3134 8.55342 14.2151C8.29015 14.1296 8.11663 14.2617 8.11413 14.5498C8.11064 14.9644 8.10965 15.3785 8.11463 15.793C8.11762 16.0684 8.29414 16.201 8.55092 16.1185C8.8506 16.0223 9.14728 15.9138 9.45792 15.8063ZM11.5516 15.8084C11.8598 15.9148 12.1679 16.0295 12.4811 16.1257C12.7029 16.1938 12.8804 16.0694 12.8859 15.8391C12.8959 15.3867 12.8944 14.9337 12.8854 14.4818C12.8819 14.3042 12.7294 14.1465 12.5848 14.1859C12.2312 14.2827 11.8852 14.4096 11.5516 14.5191C11.5845 14.7996 11.7127 14.8887 11.9575 14.8641C12.1654 14.8431 12.2891 14.9762 12.2926 15.1589C12.2961 15.3503 12.1654 15.4946 11.9535 15.4711C11.7057 15.444 11.5825 15.5376 11.5516 15.8084ZM11.0964 15.1748C11.1034 14.8472 10.8331 14.5632 10.5105 14.5585C10.1864 14.5539 9.91465 14.8221 9.90518 15.1553C9.8962 15.4762 10.1734 15.7685 10.4916 15.7746C10.8102 15.7808 11.0894 15.5039 11.0964 15.1748Z" fill="#282D4B"/>
</svg>
