<svg width="16" height="16" viewBox="0 0 16 16" fill="none" xmlns="http://www.w3.org/2000/svg">
<path d="M14.3749 2.08124C14.2541 1.9766 14.1071 1.90678 13.9497 1.87926C13.7923 1.85173 13.6303 1.86754 13.4812 1.92499L1.94367 6.45624C1.76664 6.52482 1.61672 6.64912 1.51654 6.81038C1.41635 6.97163 1.37132 7.1611 1.38825 7.35019C1.40519 7.53928 1.48316 7.71774 1.61041 7.85863C1.73766 7.99952 1.90727 8.0952 2.09367 8.13124L5.12492 8.73749V12.5C5.12512 12.6724 5.17625 12.8409 5.27188 12.9843C5.3675 13.1277 5.50337 13.2397 5.66242 13.3062C5.76967 13.3499 5.88412 13.3733 5.99992 13.375C6.11493 13.3757 6.22892 13.3534 6.33518 13.3094C6.44144 13.2654 6.53783 13.2005 6.61867 13.1187L8.32492 11.4125L10.8749 13.6562C11.0329 13.7979 11.2378 13.8758 11.4499 13.875C11.5413 13.8757 11.6322 13.861 11.7187 13.8312C11.863 13.7854 11.9927 13.7023 12.0947 13.5904C12.1968 13.4785 12.2675 13.3417 12.2999 13.1937L14.6562 2.93749C14.6914 2.78268 14.6838 2.6212 14.6343 2.47037C14.5847 2.31953 14.4951 2.18502 14.3749 2.08124ZM2.14367 7.28124C2.1393 7.25489 2.14444 7.22785 2.15819 7.20495C2.17193 7.18205 2.19337 7.16478 2.21867 7.15624L11.8749 3.36249L5.41242 8.03124L2.24367 7.39374C2.21605 7.39065 2.19055 7.37745 2.17208 7.35668C2.15362 7.3359 2.1435 7.30903 2.14367 7.28124ZM6.08742 12.5875C6.07009 12.6057 6.04744 12.6179 6.02274 12.6224C5.99803 12.6268 5.97254 12.6234 5.94992 12.6125C5.92795 12.6029 5.90919 12.5872 5.8959 12.5673C5.8826 12.5473 5.87532 12.524 5.87492 12.5V9.25624L7.75617 10.9187L6.08742 12.5875ZM11.5749 13.025C11.5706 13.0467 11.5607 13.0668 11.5461 13.0834C11.5315 13.1 11.5128 13.1124 11.4918 13.1194C11.4708 13.1264 11.4484 13.1277 11.4268 13.1232C11.4051 13.1187 11.3851 13.1085 11.3687 13.0937L6.09992 8.45624L13.9124 2.81874L11.5749 13.025Z" fill="#282D4B"/>
</svg>
