<svg width="21" height="21" viewBox="0 0 21 21" fill="none" xmlns="http://www.w3.org/2000/svg">
<g clip-path="url(#clip0_623_11355)">
<path fill-rule="evenodd" clip-rule="evenodd" d="M10.6989 17.7796C10.479 17.9995 10.1224 17.9995 9.90239 17.7796L6.36214 14.2393C6.14217 14.0194 6.1422 13.6627 6.36214 13.4428C6.58208 13.2228 6.93873 13.2228 7.15869 13.4428L9.73741 16.0215L9.73742 4.58007L7.15869 7.1588C6.93873 7.37876 6.58208 7.37874 6.36214 7.1588C6.1422 6.93886 6.14217 6.58221 6.36214 6.36224L9.90239 2.82199C10.008 2.71636 10.1513 2.65701 10.3007 2.65702C10.4501 2.65702 10.5934 2.7164 10.6989 2.82199L14.2392 6.36225C14.4592 6.58222 14.4592 6.93884 14.2392 7.15881C14.0192 7.37877 13.6626 7.37877 13.4426 7.15881L10.8639 4.58008V16.0215L13.4426 13.4428C13.6626 13.2228 14.0192 13.2228 14.2392 13.4428C14.4592 13.6627 14.4592 14.0193 14.2392 14.2393L10.6989 17.7796Z" fill="#282D4B"/>
</g>
<defs>
<clipPath id="clip0_623_11355">
<rect width="14.5675" height="14.5675" fill="white" transform="translate(20.6016 10.3008) rotate(135)"/>
</clipPath>
</defs>
</svg>
