<svg width="34" height="36" viewBox="0 0 34 36" fill="none" xmlns="http://www.w3.org/2000/svg">
<path d="M6.86344 2.08961C13.485 2.03536 20.1066 1.98111 26.7282 1.92686C26.4694 1.66724 26.2106 1.40763 25.9517 1.14801C25.8353 5.50344 25.7189 9.85887 25.6025 14.2143C25.5318 16.8608 25.6233 19.2172 23.6074 21.2188C22.0203 22.7946 19.1775 24.133 17.0243 24.2329C5.19427 24.7818 7.68125 9.27905 7.64477 1.58853C7.64002 0.586461 6.08704 0.584389 6.09181 1.58853C6.10888 5.18835 6.12596 8.78817 6.14304 12.388C6.15456 14.8161 5.93315 17.3245 6.98552 19.5824C8.91888 23.7304 12.5564 25.8719 17.0243 25.7906C20.4268 25.7287 25.4805 23.2225 26.8031 19.801C27.6453 17.6224 27.1466 14.5465 27.2079 12.2544C27.3068 8.55224 27.4058 4.85012 27.5047 1.14801C27.5159 0.729533 27.1399 0.365791 26.7282 0.369164C20.1066 0.423416 13.485 0.477669 6.86344 0.531922C5.8646 0.540105 5.86224 2.09782 6.86344 2.08961Z" fill="#9DCA39"/>
<path d="M26.8208 5.36854C28.6246 5.36779 30.4284 5.36704 32.2322 5.36629C31.9826 5.17569 31.733 4.98509 31.4834 4.79449C32.5007 8.27608 30.2268 15.5913 26.5933 16.9793C25.6685 17.3326 26.0697 18.8391 27.0061 18.4813C29.3091 17.6017 30.578 15.7654 31.5084 13.5351C32.6062 10.9034 33.8136 7.23015 32.9809 4.38039C32.8847 4.05126 32.5772 3.80845 32.2322 3.80859C30.4284 3.80935 28.6246 3.8101 26.8208 3.81085C25.8216 3.81127 25.8199 5.36896 26.8208 5.36854Z" fill="#9DCA39"/>
<path d="M6.63313 4.26636C5.31627 4.27046 3.99942 4.27456 2.68257 4.27866C2.19783 4.28017 1.16458 4.07715 0.693229 4.44842C-0.433633 5.33602 0.129918 8.3083 0.223173 9.48923C0.501087 13.0086 3.03727 16.6453 6.36115 18.029C7.28323 18.4128 7.68535 16.9063 6.77398 16.5269C5.52544 16.0072 4.67075 14.8482 3.79948 13.8716C2.46862 12.3797 1.87892 11.066 1.74288 9.05043C1.67787 8.08732 1.34278 6.45123 2.24362 5.83772C2.92066 5.37663 5.73948 5.82683 6.63313 5.82405C7.63224 5.82094 7.63416 4.26324 6.63313 4.26636Z" fill="#9DCA39"/>
<path d="M11.1767 32.2949C13.3727 32.3132 15.5688 32.3315 17.7648 32.3498C18.7917 32.3583 20.6229 32.1095 21.6175 32.3965C22.3241 32.8852 23.0307 33.3738 23.7373 33.8624C23.0966 33.8719 22.4559 33.8802 21.8151 33.8872C19.6794 33.9122 17.5436 33.9272 15.4077 33.9322C14.3398 33.9347 13.2718 33.935 12.2039 33.9325C11.7767 33.9311 11.3496 33.9298 10.9224 33.9284C8.91885 34.2016 9.11489 33.6534 11.5105 32.2836C12.5057 32.3726 12.4997 30.8144 11.5105 30.7259C9.43416 30.5402 6.98327 32.7184 7.61065 34.8987C7.706 35.2301 8.01495 35.4681 8.3594 35.4705C11.5632 35.4929 14.7669 35.4986 17.9707 35.4791C20.3124 35.4648 23.3304 35.9423 25.5768 35.2667C25.8243 35.1923 26.065 34.9879 26.1191 34.7227C26.4475 33.1149 25.7036 31.8188 24.2095 31.2472C22.6323 30.6439 20.7234 30.8205 19.0825 30.8031C16.4473 30.7751 13.8119 30.7592 11.1767 30.7372C10.1771 30.7289 10.1762 32.2866 11.1767 32.2949Z" fill="#9DCA39"/>
<path d="M14.1485 25.0686C14.1754 27.031 14.2249 28.9927 14.2969 30.9539C14.3336 31.9533 15.8868 31.9581 15.8499 30.9539C15.7779 28.9927 15.7284 27.031 15.7015 25.0686C15.6878 24.0671 14.1348 24.0642 14.1485 25.0686Z" fill="#9DCA39"/>
<path d="M17.7589 25.3C17.7865 27.1463 17.8142 28.9927 17.8418 30.839C17.8568 31.8404 19.4098 31.8434 19.3948 30.839C19.3672 28.9927 19.3395 27.1463 19.3119 25.3C19.2969 24.2986 17.7439 24.2956 17.7589 25.3Z" fill="#9DCA39"/>
</svg>
