<svg width="16" height="16" viewBox="0 0 16 16" fill="none" xmlns="http://www.w3.org/2000/svg">
<path d="M7.6313 1C6.446 1.01633 3.89949 1.20067 2.47676 2.43911C1.42002 3.44247 1.04727 4.90841 1.00852 6.7267C0.969771 8.5444 0.919333 11.9529 4.38357 12.8769H4.38542L4.38296 14.2863C4.38296 14.2863 4.3602 14.8562 4.75817 14.9729C5.2361 15.114 5.5172 14.6812 5.97606 14.2133C6.22641 13.9567 6.57394 13.581 6.83536 13.2917C9.20349 13.4818 11.0254 13.049 11.2333 12.9854C11.7106 12.8384 14.4171 12.5094 14.8575 9.10208C15.3127 5.59034 14.636 3.3678 13.4181 2.36678C13.0516 2.04594 11.5692 1.02508 8.26669 1.01167C8.26669 1.01167 8.02373 0.997083 7.62884 1.00175L7.6313 1ZM7.66697 1.9876C8.0022 1.98527 8.20826 1.99752 8.20826 1.99752C11.002 2.00919 12.3399 2.8072 12.6505 3.07437C13.6808 3.91147 14.2067 5.9141 13.8229 8.84774V8.84891C13.4514 11.6945 11.2555 11.873 10.8507 11.9961C10.6785 12.0486 9.07801 12.426 7.06602 12.3017C7.06602 12.3017 5.56764 14.0168 5.09955 14.4624C5.02574 14.5324 4.93962 14.5599 4.88303 14.5464C4.80307 14.5272 4.78093 14.4368 4.78154 14.3049L4.79384 11.9611C1.86474 11.191 2.03512 8.29065 2.06895 6.7722C2.10217 5.25317 2.40295 4.00831 3.29669 3.17121C4.50229 2.13694 6.66374 1.99402 7.67005 1.98702L7.66697 1.9876ZM7.90071 3.50547C7.85302 3.50775 7.80806 3.52724 7.77504 3.55996C7.74203 3.59267 7.72346 3.63613 7.72314 3.68141C7.72283 3.72669 7.74079 3.77038 7.77335 3.8035C7.80591 3.83662 7.8506 3.85668 7.89825 3.85956C8.89717 3.86539 9.71033 4.17281 10.3759 4.78824C11.0359 5.39842 11.3723 6.22794 11.3803 7.31646C11.3816 7.41388 11.4664 7.49146 11.5692 7.49146C11.6183 7.49085 11.6653 7.47189 11.6998 7.4387C11.7343 7.40551 11.7537 7.36076 11.7537 7.31413C11.7451 6.15677 11.3736 5.21642 10.6367 4.53507C9.9047 3.85839 8.98082 3.51247 7.90132 3.50547H7.90071ZM5.46492 3.91089C5.33414 3.89372 5.20104 3.91769 5.08602 3.97914L5.07986 3.98031C4.81537 4.1244 4.57794 4.30815 4.37496 4.52399C4.37373 4.52632 4.37127 4.52632 4.37004 4.52865C4.20581 4.71707 4.1117 4.90083 4.08709 5.08166C4.08228 5.10863 4.08083 5.13604 4.08279 5.16333C4.08279 5.24267 4.09632 5.32084 4.12277 5.39667L4.13077 5.4025C4.2138 5.68251 4.42171 6.14685 4.87196 6.92153C5.1303 7.36954 5.42739 7.79655 5.76139 8.19673C5.92747 8.3974 6.10585 8.58932 6.29653 8.77074L6.37772 8.84774C6.5684 9.02741 6.77139 9.19775 6.98298 9.35525C7.40529 9.67207 7.85509 9.95444 8.32759 10.1994C9.14444 10.6269 9.63529 10.8235 9.92931 10.9029L9.93546 10.911C10.0425 10.9442 10.1557 10.9552 10.2676 10.9431C10.4583 10.9221 10.6533 10.8323 10.8507 10.6748C10.8532 10.6748 10.8526 10.6736 10.8556 10.6719C11.0832 10.4794 11.2758 10.2519 11.4277 10.0022L11.4295 9.99635C11.5679 9.74434 11.5218 9.50517 11.3188 9.343C11.3164 9.343 10.8895 9.00466 10.681 8.85882C10.4595 8.71007 10.2319 8.57182 9.99635 8.44465C9.68265 8.27839 9.36157 8.38281 9.22871 8.54615L8.95376 8.87516C8.81229 9.04024 8.54964 9.01866 8.54964 9.01866C6.63053 8.55432 6.11692 6.71153 6.11692 6.71153C6.11692 6.71153 6.09416 6.46303 6.26947 6.32886L6.61577 6.06752C6.78615 5.9421 6.89625 5.63759 6.72033 5.3395C6.58674 5.11567 6.44097 4.89856 6.28361 4.68907C6.11842 4.48407 5.9482 4.28276 5.77308 4.08531C5.69595 3.99371 5.5861 3.93207 5.4643 3.91206L5.46492 3.91089ZM8.22671 4.42423C8.17728 4.42284 8.12929 4.44013 8.0933 4.47229C8.05731 4.50446 8.03627 4.54886 8.0348 4.59574C8.03333 4.64262 8.05156 4.68813 8.08547 4.72226C8.11939 4.75639 8.16621 4.77635 8.21564 4.77774C8.92916 4.82733 9.4563 5.04958 9.84258 5.44859C10.2301 5.84993 10.4146 6.33761 10.3999 6.94778C10.4025 6.99265 10.423 7.0349 10.4571 7.0661C10.4911 7.09731 10.5364 7.11517 10.5838 7.11613C10.6311 7.11709 10.6771 7.10107 10.7126 7.07127C10.7481 7.04147 10.7704 7.00008 10.7751 6.95537C10.7904 6.26994 10.5696 5.67609 10.1188 5.20883C9.66358 4.73632 9.02573 4.4779 8.2427 4.42365H8.22794L8.22671 4.42423ZM8.5115 5.37509C8.46414 5.37575 8.41879 5.39337 8.38457 5.42443C8.35034 5.45548 8.32976 5.49766 8.32697 5.54251C8.32205 5.63993 8.40078 5.72334 8.50412 5.72918C8.82582 5.74551 9.04233 5.83126 9.18873 5.97535C9.33635 6.11827 9.42739 6.33702 9.44461 6.65436C9.45094 6.69834 9.47444 6.73847 9.51046 6.76682C9.54647 6.79517 9.59239 6.80968 9.63914 6.80749C9.68589 6.80529 9.73007 6.78654 9.76295 6.75495C9.79583 6.72336 9.81503 6.68122 9.81674 6.63686C9.79829 6.26119 9.6845 5.94968 9.45999 5.72859C9.23424 5.50809 8.9107 5.39375 8.52503 5.3745H8.51396L8.5115 5.37509Z" fill="#46284B"/>
</svg>
