<svg width="290" height="290" viewBox="0 0 290 290" fill="none" xmlns="http://www.w3.org/2000/svg">
    <rect width="290" height="290" rx="20" fill="#F9F9FF"/>
    <g clip-path="url(#clip0_169_9263)">
        <path d="M92.0137 84.25C92.0137 80.6696 93.436 77.2358 95.9677 74.7041C98.4995 72.1723 101.933 70.75 105.514 70.75H186.514C190.094 70.75 193.528 72.1723 196.06 74.7041C198.591 77.2358 200.014 80.6696 200.014 84.25V151.75C200.014 155.33 198.591 158.764 196.06 161.296C193.528 163.828 190.094 165.25 186.514 165.25H105.514C101.933 165.25 98.4995 163.828 95.9677 161.296C93.436 158.764 92.0137 155.33 92.0137 151.75V84.25ZM98.7637 145V151.75C98.7637 153.54 99.4748 155.257 100.741 156.523C102.007 157.789 103.723 158.5 105.514 158.5H186.514C188.304 158.5 190.021 157.789 191.287 156.523C192.553 155.257 193.264 153.54 193.264 151.75V128.125L167.769 114.983C167.136 114.666 166.419 114.556 165.72 114.668C165.021 114.781 164.375 115.111 163.874 115.611L138.832 140.653L120.877 128.692C120.228 128.26 119.451 128.066 118.676 128.143C117.901 128.219 117.176 128.561 116.624 129.111L98.7637 145ZM132.514 101.125C132.514 98.4397 131.447 95.8643 129.548 93.9655C127.649 92.0667 125.074 91 122.389 91C119.703 91 117.128 92.0667 115.229 93.9655C113.33 95.8643 112.264 98.4397 112.264 101.125C112.264 103.81 113.33 106.386 115.229 108.284C117.128 110.183 119.703 111.25 122.389 111.25C125.074 111.25 127.649 110.183 129.548 108.284C131.447 106.386 132.514 103.81 132.514 101.125Z" fill="#D7D7E5"/>
    </g>
    <path d="M51.0621 189.031H52.6729C53.4285 189.031 54.0997 189.2 54.6863 189.538C55.273 189.876 55.7337 190.347 56.0684 190.95C56.4032 191.554 56.5706 192.253 56.5706 193.048C56.5706 193.844 56.4032 194.545 56.0684 195.151C55.7337 195.758 55.273 196.232 54.6863 196.573C54.0997 196.915 53.4285 197.085 52.6729 197.085H51.0621C50.3064 197.085 49.6352 196.916 49.0486 196.578C48.4619 196.24 48.0012 195.769 47.6665 195.166C47.3317 194.563 47.1643 193.864 47.1643 193.068C47.1643 192.273 47.3317 191.572 47.6665 190.965C48.0012 190.359 48.4619 189.885 49.0486 189.543C49.6352 189.202 50.3064 189.031 51.0621 189.031ZM51.0621 190.125C50.4854 190.125 49.9981 190.246 49.6004 190.488C49.206 190.73 48.906 191.071 48.7006 191.512C48.4984 191.953 48.3973 192.472 48.3973 193.068C48.3973 193.658 48.4984 194.172 48.7006 194.609C48.906 195.047 49.206 195.387 49.6004 195.629C49.9981 195.871 50.4854 195.991 51.0621 195.991H52.6729C53.2496 195.991 53.7351 195.871 54.1295 195.629C54.5273 195.387 54.8272 195.045 55.0294 194.604C55.2349 194.164 55.3376 193.645 55.3376 193.048C55.3376 192.458 55.2349 191.945 55.0294 191.507C54.8272 191.07 54.5273 190.73 54.1295 190.488C53.7351 190.246 53.2496 190.125 52.6729 190.125H51.0621ZM52.4939 187.639V198.418H51.2609V187.639H52.4939ZM61.5795 198.159C60.8901 198.159 60.2852 197.995 59.7648 197.667C59.2478 197.339 58.8434 196.88 58.5518 196.29C58.2634 195.7 58.1192 195.01 58.1192 194.222C58.1192 193.426 58.2634 192.732 58.5518 192.138C58.8434 191.545 59.2478 191.085 59.7648 190.756C60.2852 190.428 60.8901 190.264 61.5795 190.264C62.2689 190.264 62.8721 190.428 63.3891 190.756C63.9095 191.085 64.3138 191.545 64.6022 192.138C64.8939 192.732 65.0397 193.426 65.0397 194.222C65.0397 195.01 64.8939 195.7 64.6022 196.29C64.3138 196.88 63.9095 197.339 63.3891 197.667C62.8721 197.995 62.2689 198.159 61.5795 198.159ZM61.5795 197.105C62.1031 197.105 62.534 196.971 62.8721 196.702C63.2101 196.434 63.4604 196.081 63.6228 195.643C63.7852 195.206 63.8664 194.732 63.8664 194.222C63.8664 193.711 63.7852 193.236 63.6228 192.795C63.4604 192.354 63.2101 191.998 62.8721 191.726C62.534 191.454 62.1031 191.318 61.5795 191.318C61.0558 191.318 60.6249 191.454 60.2868 191.726C59.9488 191.998 59.6985 192.354 59.5361 192.795C59.3737 193.236 59.2925 193.711 59.2925 194.222C59.2925 194.732 59.3737 195.206 59.5361 195.643C59.6985 196.081 59.9488 196.434 60.2868 196.702C60.6249 196.971 61.0558 197.105 61.5795 197.105ZM66.8307 200.864V190.364H67.9642V191.577H68.1034C68.1896 191.444 68.3089 191.275 68.4614 191.07C68.6172 190.861 68.8392 190.675 69.1276 190.513C69.4192 190.347 69.8137 190.264 70.3108 190.264C70.9538 190.264 71.5206 190.425 72.0111 190.746C72.5016 191.068 72.8844 191.524 73.1595 192.114C73.4346 192.704 73.5722 193.4 73.5722 194.202C73.5722 195.01 73.4346 195.711 73.1595 196.305C72.8844 196.895 72.5033 197.352 72.0161 197.677C71.5289 197.998 70.9671 198.159 70.3307 198.159C69.8402 198.159 69.4474 198.078 69.1524 197.915C68.8575 197.75 68.6304 197.562 68.4713 197.354C68.3122 197.142 68.1896 196.966 68.1034 196.827H68.004V200.864H66.8307ZM67.9841 194.182C67.9841 194.759 68.0686 195.267 68.2377 195.708C68.4067 196.146 68.6536 196.489 68.9784 196.737C69.3032 196.982 69.701 197.105 70.1716 197.105C70.6621 197.105 71.0715 196.976 71.3996 196.717C71.731 196.455 71.9796 196.104 72.1453 195.663C72.3144 195.219 72.3989 194.725 72.3989 194.182C72.3989 193.645 72.316 193.161 72.1503 192.73C71.9879 192.296 71.741 191.953 71.4095 191.701C71.0814 191.446 70.6688 191.318 70.1716 191.318C69.6943 191.318 69.2933 191.439 68.9685 191.681C68.6437 191.92 68.3984 192.254 68.2327 192.685C68.067 193.113 67.9841 193.612 67.9841 194.182ZM79.5381 196.409L82.2029 190.364H83.3165L80.0154 198H79.0608L75.8193 190.364H76.9131L79.5381 196.409ZM76.5352 190.364V198H75.3619V190.364H76.5352ZM82.5409 198V190.364H83.7142V198H82.5409ZM88.1091 198.179C87.6252 198.179 87.1861 198.088 86.7916 197.906C86.3972 197.72 86.084 197.453 85.852 197.105C85.62 196.754 85.504 196.33 85.504 195.832C85.504 195.395 85.5902 195.04 85.7625 194.768C85.9349 194.493 86.1652 194.278 86.4536 194.122C86.7419 193.966 87.0601 193.85 87.4081 193.774C87.7594 193.695 88.1124 193.632 88.4671 193.585C88.9311 193.526 89.3073 193.481 89.5956 193.451C89.8873 193.418 90.0994 193.363 90.232 193.287C90.3679 193.211 90.4358 193.078 90.4358 192.889V192.849C90.4358 192.359 90.3016 191.978 90.0331 191.706C89.768 191.434 89.3653 191.298 88.825 191.298C88.2649 191.298 87.8257 191.421 87.5075 191.666C87.1894 191.911 86.9656 192.173 86.8364 192.452L85.7227 192.054C85.9216 191.59 86.1868 191.229 86.5182 190.97C86.853 190.708 87.2175 190.526 87.6119 190.423C88.0097 190.317 88.4008 190.264 88.7852 190.264C89.0305 190.264 89.3122 190.294 89.6304 190.354C89.9519 190.41 90.2618 190.528 90.5601 190.707C90.8617 190.886 91.1119 191.156 91.3108 191.517C91.5097 191.878 91.6091 192.362 91.6091 192.969V198H90.4358V196.966H90.3762C90.2966 197.132 90.164 197.309 89.9784 197.498C89.7928 197.687 89.5459 197.848 89.2377 197.98C88.9294 198.113 88.5532 198.179 88.1091 198.179ZM88.2881 197.125C88.7521 197.125 89.1432 197.034 89.4614 196.852C89.7829 196.669 90.0248 196.434 90.1872 196.146C90.353 195.857 90.4358 195.554 90.4358 195.236V194.162C90.3861 194.222 90.2767 194.276 90.1077 194.326C89.942 194.372 89.7497 194.414 89.531 194.45C89.3155 194.483 89.1051 194.513 88.8996 194.54C88.6974 194.563 88.5334 194.583 88.4074 194.599C88.1025 194.639 87.8174 194.704 87.5523 194.793C87.2905 194.879 87.0783 195.01 86.9159 195.186C86.7568 195.358 86.6773 195.594 86.6773 195.892C86.6773 196.3 86.8281 196.608 87.1297 196.817C87.4346 197.022 87.8208 197.125 88.2881 197.125ZM92.7116 191.457V190.364H98.9161V191.457H96.4104V198H95.2371V191.457H92.7116ZM101.801 196.27L105.48 190.364H106.832V198H105.659V192.094L102 198H100.628V190.364H101.801V196.27ZM109.836 198.08C109.591 198.08 109.38 197.992 109.205 197.816C109.029 197.64 108.941 197.43 108.941 197.185C108.941 196.939 109.029 196.729 109.205 196.553C109.38 196.378 109.591 196.29 109.836 196.29C110.081 196.29 110.292 196.378 110.468 196.553C110.643 196.729 110.731 196.939 110.731 197.185C110.731 197.347 110.69 197.496 110.607 197.632C110.527 197.768 110.42 197.877 110.284 197.96C110.151 198.04 110.002 198.08 109.836 198.08ZM109.836 192.412C109.591 192.412 109.38 192.324 109.205 192.148C109.029 191.973 108.941 191.762 108.941 191.517C108.941 191.272 109.029 191.061 109.205 190.886C109.38 190.71 109.591 190.622 109.836 190.622C110.081 190.622 110.292 190.71 110.468 190.886C110.643 191.061 110.731 191.272 110.731 191.517C110.731 191.679 110.69 191.829 110.607 191.964C110.527 192.1 110.42 192.21 110.284 192.293C110.151 192.372 110.002 192.412 109.836 192.412ZM120.831 187.818H122.064V195.097C122.064 195.746 121.945 196.298 121.706 196.752C121.467 197.206 121.131 197.551 120.697 197.786C120.262 198.022 119.75 198.139 119.16 198.139C118.604 198.139 118.108 198.038 117.674 197.836C117.24 197.63 116.898 197.339 116.65 196.961C116.401 196.583 116.277 196.134 116.277 195.614H117.49C117.49 195.902 117.561 196.154 117.704 196.369C117.85 196.581 118.048 196.747 118.3 196.866C118.552 196.986 118.839 197.045 119.16 197.045C119.515 197.045 119.817 196.971 120.065 196.822C120.314 196.673 120.503 196.454 120.632 196.165C120.765 195.874 120.831 195.518 120.831 195.097V187.818ZM124.535 198V187.818H127.975C128.774 187.818 129.427 187.962 129.934 188.251C130.444 188.536 130.822 188.922 131.067 189.409C131.313 189.896 131.435 190.44 131.435 191.04C131.435 191.64 131.313 192.185 131.067 192.675C130.825 193.166 130.451 193.557 129.944 193.849C129.437 194.137 128.787 194.281 127.995 194.281H125.529V193.188H127.955C128.502 193.188 128.941 193.093 129.273 192.904C129.604 192.715 129.844 192.46 129.994 192.138C130.146 191.814 130.222 191.447 130.222 191.04C130.222 190.632 130.146 190.268 129.994 189.946C129.844 189.625 129.602 189.373 129.268 189.19C128.933 189.005 128.489 188.912 127.935 188.912H125.768V198H124.535ZM140.382 191C140.272 190.665 140.128 190.365 139.949 190.1C139.773 189.832 139.563 189.603 139.318 189.414C139.076 189.225 138.801 189.081 138.492 188.982C138.184 188.882 137.846 188.832 137.478 188.832C136.875 188.832 136.326 188.988 135.833 189.3C135.339 189.611 134.946 190.07 134.654 190.677C134.363 191.283 134.217 192.027 134.217 192.909C134.217 193.791 134.364 194.535 134.659 195.141C134.954 195.748 135.354 196.207 135.858 196.518C136.361 196.83 136.928 196.986 137.558 196.986C138.141 196.986 138.655 196.862 139.099 196.613C139.546 196.361 139.894 196.006 140.143 195.549C140.395 195.088 140.521 194.546 140.521 193.923L140.899 194.003H137.836V192.909H141.714V194.003C141.714 194.841 141.535 195.571 141.177 196.19C140.822 196.81 140.332 197.291 139.706 197.632C139.082 197.97 138.367 198.139 137.558 198.139C136.656 198.139 135.864 197.927 135.181 197.503C134.502 197.079 133.972 196.475 133.59 195.693C133.213 194.911 133.024 193.983 133.024 192.909C133.024 192.104 133.131 191.379 133.347 190.737C133.566 190.09 133.874 189.54 134.272 189.086C134.669 188.632 135.14 188.284 135.684 188.042C136.227 187.8 136.825 187.679 137.478 187.679C138.015 187.679 138.516 187.76 138.98 187.923C139.447 188.082 139.863 188.309 140.228 188.604C140.595 188.895 140.902 189.245 141.147 189.653C141.393 190.057 141.562 190.506 141.654 191H140.382ZM145.417 196.608L145.337 197.145C145.281 197.523 145.195 197.927 145.079 198.358C144.966 198.789 144.848 199.195 144.726 199.576C144.603 199.957 144.502 200.26 144.422 200.486H143.527C143.571 200.274 143.627 199.994 143.696 199.646C143.766 199.298 143.836 198.908 143.905 198.477C143.978 198.05 144.038 197.612 144.084 197.165L144.144 196.608H145.417ZM155.625 198V187.818H159.065C159.864 187.818 160.517 187.962 161.024 188.251C161.534 188.536 161.912 188.922 162.157 189.409C162.402 189.896 162.525 190.44 162.525 191.04C162.525 191.64 162.402 192.185 162.157 192.675C161.915 193.166 161.541 193.557 161.034 193.849C160.527 194.137 159.877 194.281 159.085 194.281H156.619V193.188H159.045C159.592 193.188 160.031 193.093 160.362 192.904C160.694 192.715 160.934 192.46 161.083 192.138C161.236 191.814 161.312 191.447 161.312 191.04C161.312 190.632 161.236 190.268 161.083 189.946C160.934 189.625 160.692 189.373 160.358 189.19C160.023 189.005 159.579 188.912 159.025 188.912H156.858V198H155.625ZM172.585 187.818V198H171.392L165.844 190.006H165.744V198H164.511V187.818H165.704L171.273 195.832H171.372V187.818H172.585ZM182.013 191C181.903 190.665 181.759 190.365 181.58 190.1C181.404 189.832 181.194 189.603 180.949 189.414C180.707 189.225 180.432 189.081 180.123 188.982C179.815 188.882 179.477 188.832 179.109 188.832C178.506 188.832 177.957 188.988 177.464 189.3C176.97 189.611 176.577 190.07 176.285 190.677C175.994 191.283 175.848 192.027 175.848 192.909C175.848 193.791 175.995 194.535 176.29 195.141C176.585 195.748 176.985 196.207 177.488 196.518C177.992 196.83 178.559 196.986 179.189 196.986C179.772 196.986 180.286 196.862 180.73 196.613C181.177 196.361 181.525 196.006 181.774 195.549C182.026 195.088 182.152 194.546 182.152 193.923L182.53 194.003H179.467V192.909H183.345V194.003C183.345 194.841 183.166 195.571 182.808 196.19C182.453 196.81 181.963 197.291 181.336 197.632C180.713 197.97 179.997 198.139 179.189 198.139C178.287 198.139 177.495 197.927 176.812 197.503C176.133 197.079 175.602 196.475 175.221 195.693C174.843 194.911 174.655 193.983 174.655 192.909C174.655 192.104 174.762 191.379 174.978 190.737C175.196 190.09 175.505 189.54 175.902 189.086C176.3 188.632 176.771 188.284 177.314 188.042C177.858 187.8 178.456 187.679 179.109 187.679C179.646 187.679 180.147 187.76 180.611 187.923C181.078 188.082 181.494 188.309 181.858 188.604C182.226 188.895 182.533 189.245 182.778 189.653C183.023 190.057 183.192 190.506 183.285 191H182.013ZM187.047 196.608L186.968 197.145C186.912 197.523 186.825 197.927 186.709 198.358C186.597 198.789 186.479 199.195 186.356 199.576C186.234 199.957 186.133 200.26 186.053 200.486H185.158C185.201 200.274 185.258 199.994 185.327 199.646C185.397 199.298 185.467 198.908 185.536 198.477C185.609 198.05 185.669 197.612 185.715 197.165L185.775 196.608H187.047ZM199.105 198L196.321 187.818H197.574L199.701 196.111H199.801L201.968 187.818H203.361L205.528 196.111H205.628L207.755 187.818H209.008L206.224 198H204.951L202.704 189.886H202.625L200.378 198H199.105ZM210.544 198V187.818H216.689V188.912H211.777V192.352H216.371V193.446H211.777V196.906H216.769V198H210.544ZM218.912 198V187.818H222.471C223.181 187.818 223.766 187.941 224.226 188.186C224.687 188.428 225.03 188.754 225.255 189.165C225.481 189.573 225.593 190.026 225.593 190.523C225.593 190.96 225.516 191.321 225.36 191.607C225.207 191.892 225.005 192.117 224.753 192.283C224.505 192.448 224.235 192.571 223.943 192.651V192.75C224.254 192.77 224.568 192.879 224.883 193.078C225.197 193.277 225.461 193.562 225.673 193.933C225.885 194.304 225.991 194.759 225.991 195.295C225.991 195.806 225.875 196.265 225.643 196.673C225.411 197.08 225.045 197.403 224.544 197.642C224.044 197.881 223.393 198 222.591 198H218.912ZM220.145 196.906H222.591C223.396 196.906 223.968 196.75 224.306 196.439C224.647 196.124 224.818 195.743 224.818 195.295C224.818 194.951 224.73 194.633 224.554 194.341C224.379 194.046 224.129 193.811 223.804 193.635C223.479 193.456 223.094 193.366 222.65 193.366H220.145V196.906ZM220.145 192.293H222.432C222.803 192.293 223.138 192.22 223.436 192.074C223.737 191.928 223.976 191.723 224.152 191.457C224.331 191.192 224.42 190.881 224.42 190.523C224.42 190.075 224.264 189.696 223.953 189.384C223.641 189.069 223.147 188.912 222.471 188.912H220.145V192.293ZM228.017 198V187.818H231.457C232.256 187.818 232.909 187.962 233.416 188.251C233.927 188.536 234.305 188.922 234.55 189.409C234.795 189.896 234.918 190.44 234.918 191.04C234.918 191.64 234.795 192.185 234.55 192.675C234.308 193.166 233.933 193.557 233.426 193.849C232.919 194.137 232.27 194.281 231.477 194.281H229.011V193.188H231.438C231.984 193.188 232.424 193.093 232.755 192.904C233.086 192.715 233.327 192.46 233.476 192.138C233.628 191.814 233.705 191.447 233.705 191.04C233.705 190.632 233.628 190.268 233.476 189.946C233.327 189.625 233.085 189.373 232.75 189.19C232.415 189.005 231.971 188.912 231.418 188.912H229.25V198H228.017Z" fill="#9C9CAA"/>
    <path d="M39.4234 209.818H40.895L44.3552 218.27H44.4745L47.9347 209.818H49.4063V220H48.2529V212.264H48.1535L44.9717 220H43.858L40.6762 212.264H40.5768V220H39.4234V209.818ZM53.9665 220.179C53.4826 220.179 53.0435 220.088 52.6491 219.906C52.2546 219.72 51.9414 219.453 51.7094 219.105C51.4774 218.754 51.3614 218.33 51.3614 217.832C51.3614 217.395 51.4476 217.04 51.6199 216.768C51.7923 216.493 52.0226 216.278 52.311 216.122C52.5993 215.966 52.9175 215.85 53.2655 215.774C53.6169 215.695 53.9698 215.632 54.3245 215.585C54.7885 215.526 55.1647 215.481 55.453 215.451C55.7447 215.418 55.9568 215.363 56.0894 215.287C56.2253 215.211 56.2932 215.078 56.2932 214.889V214.849C56.2932 214.359 56.159 213.978 55.8905 213.706C55.6254 213.434 55.2227 213.298 54.6824 213.298C54.1223 213.298 53.6832 213.421 53.365 213.666C53.0468 213.911 52.8231 214.173 52.6938 214.452L51.5802 214.054C51.779 213.59 52.0442 213.229 52.3756 212.97C52.7104 212.708 53.075 212.526 53.4694 212.423C53.8671 212.317 54.2582 212.264 54.6427 212.264C54.8879 212.264 55.1697 212.294 55.4878 212.354C55.8093 212.41 56.1192 212.528 56.4175 212.707C56.7191 212.886 56.9694 213.156 57.1682 213.517C57.3671 213.878 57.4665 214.362 57.4665 214.969V220H56.2932V218.966H56.2336C56.154 219.132 56.0215 219.309 55.8358 219.498C55.6502 219.687 55.4033 219.848 55.0951 219.98C54.7868 220.113 54.4107 220.179 53.9665 220.179ZM54.1455 219.125C54.6095 219.125 55.0006 219.034 55.3188 218.852C55.6403 218.669 55.8823 218.434 56.0447 218.146C56.2104 217.857 56.2932 217.554 56.2932 217.236V216.162C56.2435 216.222 56.1341 216.276 55.9651 216.326C55.7994 216.372 55.6072 216.414 55.3884 216.45C55.173 216.483 54.9625 216.513 54.757 216.54C54.5548 216.563 54.3908 216.583 54.2648 216.599C53.9599 216.639 53.6749 216.704 53.4097 216.793C53.1479 216.879 52.9358 217.01 52.7733 217.186C52.6143 217.358 52.5347 217.594 52.5347 217.892C52.5347 218.3 52.6855 218.608 52.9871 218.817C53.2921 219.022 53.6782 219.125 54.1455 219.125ZM59.608 220V212.364H60.7813V215.685H61.5569L64.3012 212.364H65.8126L62.7302 216.043L65.8524 220H64.341L61.8353 216.778H60.7813V220H59.608ZM69.9154 220.159C69.1995 220.159 68.583 219.99 68.066 219.652C67.5489 219.314 67.1512 218.848 66.8728 218.255C66.5944 217.662 66.4552 216.984 66.4552 216.222C66.4552 215.446 66.5977 214.762 66.8827 214.168C67.1711 213.572 67.5721 213.106 68.0858 212.771C68.6029 212.433 69.2061 212.264 69.8955 212.264C70.4324 212.264 70.9163 212.364 71.3472 212.562C71.7781 212.761 72.1311 213.04 72.4062 213.398C72.6813 213.756 72.8519 214.173 72.9182 214.651H71.7449C71.6555 214.303 71.4566 213.994 71.1483 213.726C70.8434 213.454 70.4324 213.318 69.9154 213.318C69.458 213.318 69.057 213.437 68.7123 213.676C68.3709 213.911 68.1041 214.245 67.9118 214.675C67.7229 215.103 67.6285 215.605 67.6285 216.182C67.6285 216.772 67.7213 217.286 67.9069 217.723C68.0958 218.161 68.3609 218.5 68.7023 218.742C69.047 218.984 69.4514 219.105 69.9154 219.105C70.2203 219.105 70.4971 219.052 70.7456 218.946C70.9942 218.84 71.2047 218.688 71.377 218.489C71.5494 218.29 71.672 218.051 71.7449 217.773H72.9182C72.8519 218.223 72.6879 218.629 72.426 218.991C72.1675 219.349 71.8245 219.634 71.3969 219.846C70.9727 220.055 70.4788 220.159 69.9154 220.159ZM75.8067 218.27L79.4857 212.364H80.838V220H79.6647V214.094L76.0056 220H74.6334V212.364H75.8067V218.27ZM87.1631 218.409L89.8279 212.364H90.9415L87.6404 220H86.6858L83.4443 212.364H84.5381L87.1631 218.409ZM84.1602 212.364V220H82.9869V212.364H84.1602ZM90.1659 220V212.364H91.3392V220H90.1659ZM95.7341 220.179C95.2502 220.179 94.8111 220.088 94.4166 219.906C94.0222 219.72 93.709 219.453 93.477 219.105C93.245 218.754 93.129 218.33 93.129 217.832C93.129 217.395 93.2152 217.04 93.3875 216.768C93.5599 216.493 93.7902 216.278 94.0786 216.122C94.3669 215.966 94.6851 215.85 95.0331 215.774C95.3844 215.695 95.7374 215.632 96.0921 215.585C96.5561 215.526 96.9323 215.481 97.2206 215.451C97.5123 215.418 97.7244 215.363 97.857 215.287C97.9929 215.211 98.0608 215.078 98.0608 214.889V214.849C98.0608 214.359 97.9266 213.978 97.6581 213.706C97.393 213.434 96.9903 213.298 96.45 213.298C95.8899 213.298 95.4507 213.421 95.1325 213.666C94.8144 213.911 94.5906 214.173 94.4614 214.452L93.3477 214.054C93.5466 213.59 93.8118 213.229 94.1432 212.97C94.478 212.708 94.8425 212.526 95.2369 212.423C95.6347 212.317 96.0258 212.264 96.4102 212.264C96.6555 212.264 96.9372 212.294 97.2554 212.354C97.5769 212.41 97.8868 212.528 98.1851 212.707C98.4867 212.886 98.7369 213.156 98.9358 213.517C99.1347 213.878 99.2341 214.362 99.2341 214.969V220H98.0608V218.966H98.0012C97.9216 219.132 97.789 219.309 97.6034 219.498C97.4178 219.687 97.1709 219.848 96.8627 219.98C96.5544 220.113 96.1782 220.179 95.7341 220.179ZM95.9131 219.125C96.3771 219.125 96.7682 219.034 97.0864 218.852C97.4079 218.669 97.6498 218.434 97.8122 218.146C97.978 217.857 98.0608 217.554 98.0608 217.236V216.162C98.0111 216.222 97.9017 216.276 97.7327 216.326C97.567 216.372 97.3747 216.414 97.156 216.45C96.9405 216.483 96.7301 216.513 96.5246 216.54C96.3224 216.563 96.1584 216.583 96.0324 216.599C95.7275 216.639 95.4424 216.704 95.1773 216.793C94.9155 216.879 94.7033 217.01 94.5409 217.186C94.3818 217.358 94.3023 217.594 94.3023 217.892C94.3023 218.3 94.4531 218.608 94.7547 218.817C95.0596 219.022 95.4458 219.125 95.9131 219.125ZM100.699 220V218.906H100.978C101.207 218.906 101.397 218.862 101.55 218.772C101.702 218.679 101.825 218.518 101.918 218.29C102.014 218.058 102.087 217.736 102.136 217.325C102.189 216.911 102.227 216.384 102.251 215.744L102.39 212.364H107.481V220H106.307V213.457H103.503L103.384 216.182C103.358 216.808 103.301 217.36 103.215 217.837C103.132 218.311 103.005 218.709 102.832 219.031C102.663 219.352 102.438 219.594 102.156 219.756C101.874 219.919 101.521 220 101.097 220H100.699ZM110.648 215.128H112.835C113.73 215.128 114.414 215.355 114.888 215.809C115.362 216.263 115.599 216.838 115.599 217.534C115.599 217.991 115.493 218.407 115.281 218.782C115.069 219.153 114.757 219.45 114.347 219.672C113.936 219.891 113.432 220 112.835 220H109.633V212.364H110.807V218.906H112.835C113.299 218.906 113.68 218.784 113.979 218.538C114.277 218.293 114.426 217.978 114.426 217.594C114.426 217.189 114.277 216.86 113.979 216.604C113.68 216.349 113.299 216.222 112.835 216.222H110.648V215.128ZM122.496 215.645V216.739H118.28V215.645H122.496ZM118.559 212.364V220H117.385V212.364H118.559ZM123.391 212.364V220H122.218V212.364H123.391ZM126.707 218.27L130.386 212.364H131.738V220H130.565V214.094L126.906 220H125.534V212.364H126.707V218.27ZM135.061 218.27L138.74 212.364H140.092V220H138.919V214.094L135.259 220H133.887V212.364H135.061V218.27ZM137.964 209.818H139.058C139.058 210.355 138.872 210.794 138.501 211.136C138.13 211.477 137.626 211.648 136.99 211.648C136.363 211.648 135.864 211.477 135.493 211.136C135.125 210.794 134.941 210.355 134.941 209.818H136.035C136.035 210.077 136.106 210.304 136.249 210.499C136.395 210.695 136.642 210.793 136.99 210.793C137.338 210.793 137.586 210.695 137.735 210.499C137.888 210.304 137.964 210.077 137.964 209.818ZM146.178 222.864V212.364H147.312V213.577H147.451C147.537 213.444 147.657 213.275 147.809 213.07C147.965 212.861 148.187 212.675 148.475 212.513C148.767 212.347 149.161 212.264 149.658 212.264C150.301 212.264 150.868 212.425 151.359 212.746C151.849 213.068 152.232 213.524 152.507 214.114C152.782 214.704 152.92 215.4 152.92 216.202C152.92 217.01 152.782 217.711 152.507 218.305C152.232 218.895 151.851 219.352 151.364 219.677C150.877 219.998 150.315 220.159 149.678 220.159C149.188 220.159 148.795 220.078 148.5 219.915C148.205 219.75 147.978 219.562 147.819 219.354C147.66 219.142 147.537 218.966 147.451 218.827H147.352V222.864H146.178ZM147.332 216.182C147.332 216.759 147.416 217.267 147.585 217.708C147.754 218.146 148.001 218.489 148.326 218.737C148.651 218.982 149.049 219.105 149.519 219.105C150.01 219.105 150.419 218.976 150.747 218.717C151.079 218.455 151.327 218.104 151.493 217.663C151.662 217.219 151.747 216.725 151.747 216.182C151.747 215.645 151.664 215.161 151.498 214.73C151.336 214.296 151.089 213.953 150.757 213.701C150.429 213.446 150.016 213.318 149.519 213.318C149.042 213.318 148.641 213.439 148.316 213.681C147.991 213.92 147.746 214.254 147.58 214.685C147.415 215.113 147.332 215.612 147.332 216.182ZM157.812 220.159C157.122 220.159 156.518 219.995 155.997 219.667C155.48 219.339 155.076 218.88 154.784 218.29C154.496 217.7 154.352 217.01 154.352 216.222C154.352 215.426 154.496 214.732 154.784 214.138C155.076 213.545 155.48 213.085 155.997 212.756C156.518 212.428 157.122 212.264 157.812 212.264C158.501 212.264 159.104 212.428 159.622 212.756C160.142 213.085 160.546 213.545 160.835 214.138C161.126 214.732 161.272 215.426 161.272 216.222C161.272 217.01 161.126 217.7 160.835 218.29C160.546 218.88 160.142 219.339 159.622 219.667C159.104 219.995 158.501 220.159 157.812 220.159ZM157.812 219.105C158.336 219.105 158.766 218.971 159.104 218.702C159.443 218.434 159.693 218.081 159.855 217.643C160.018 217.206 160.099 216.732 160.099 216.222C160.099 215.711 160.018 215.236 159.855 214.795C159.693 214.354 159.443 213.998 159.104 213.726C158.766 213.454 158.336 213.318 157.812 213.318C157.288 213.318 156.857 213.454 156.519 213.726C156.181 213.998 155.931 214.354 155.769 214.795C155.606 215.236 155.525 215.711 155.525 216.222C155.525 216.732 155.606 217.206 155.769 217.643C155.931 218.081 156.181 218.434 156.519 218.702C156.857 218.971 157.288 219.105 157.812 219.105ZM162.586 218.051H163.839C163.865 218.396 164.021 218.658 164.306 218.837C164.594 219.016 164.969 219.105 165.43 219.105C165.9 219.105 166.303 219.009 166.638 218.817C166.972 218.621 167.14 218.306 167.14 217.872C167.14 217.617 167.077 217.395 166.951 217.206C166.825 217.014 166.648 216.865 166.419 216.759C166.19 216.652 165.92 216.599 165.609 216.599H164.296V215.545H165.609C166.076 215.545 166.421 215.439 166.643 215.227C166.868 215.015 166.981 214.75 166.981 214.432C166.981 214.09 166.86 213.817 166.618 213.612C166.376 213.403 166.033 213.298 165.589 213.298C165.141 213.298 164.768 213.399 164.47 213.602C164.172 213.8 164.014 214.057 163.998 214.372H162.765C162.778 213.961 162.904 213.598 163.143 213.283C163.381 212.965 163.706 212.717 164.117 212.538C164.528 212.355 164.999 212.264 165.529 212.264C166.066 212.264 166.532 212.359 166.926 212.548C167.324 212.733 167.63 212.987 167.846 213.308C168.065 213.626 168.174 213.988 168.174 214.392C168.174 214.823 168.053 215.171 167.811 215.436C167.569 215.701 167.266 215.89 166.901 216.003V216.082C167.19 216.102 167.44 216.195 167.652 216.361C167.867 216.523 168.035 216.737 168.154 217.002C168.273 217.264 168.333 217.554 168.333 217.872C168.333 218.336 168.209 218.741 167.96 219.085C167.712 219.427 167.37 219.692 166.936 219.881C166.502 220.066 166.006 220.159 165.449 220.159C164.909 220.159 164.425 220.071 163.998 219.896C163.57 219.717 163.23 219.47 162.979 219.155C162.73 218.837 162.599 218.469 162.586 218.051ZM174.157 218.409L176.822 212.364H177.936L174.634 220H173.68L170.438 212.364H171.532L174.157 218.409ZM171.154 212.364V220H169.981V212.364H171.154ZM177.16 220V212.364H178.333V220H177.16ZM180.481 220V212.364H181.654V220H180.481ZM181.078 211.091C180.849 211.091 180.652 211.013 180.486 210.857C180.324 210.701 180.242 210.514 180.242 210.295C180.242 210.077 180.324 209.889 180.486 209.734C180.652 209.578 180.849 209.5 181.078 209.5C181.306 209.5 181.502 209.578 181.664 209.734C181.83 209.889 181.913 210.077 181.913 210.295C181.913 210.514 181.83 210.701 181.664 210.857C181.502 211.013 181.306 211.091 181.078 211.091ZM183.803 222.864V212.364H184.937V213.577H185.076C185.162 213.444 185.282 213.275 185.434 213.07C185.59 212.861 185.812 212.675 186.1 212.513C186.392 212.347 186.786 212.264 187.283 212.264C187.926 212.264 188.493 212.425 188.984 212.746C189.474 213.068 189.857 213.524 190.132 214.114C190.407 214.704 190.545 215.4 190.545 216.202C190.545 217.01 190.407 217.711 190.132 218.305C189.857 218.895 189.476 219.352 188.989 219.677C188.502 219.998 187.94 220.159 187.303 220.159C186.813 220.159 186.42 220.078 186.125 219.915C185.83 219.75 185.603 219.562 185.444 219.354C185.285 219.142 185.162 218.966 185.076 218.827H184.977V222.864H183.803ZM184.957 216.182C184.957 216.759 185.041 217.267 185.21 217.708C185.379 218.146 185.626 218.489 185.951 218.737C186.276 218.982 186.674 219.105 187.144 219.105C187.635 219.105 188.044 218.976 188.372 218.717C188.704 218.455 188.952 218.104 189.118 217.663C189.287 217.219 189.372 216.725 189.372 216.182C189.372 215.645 189.289 215.161 189.123 214.73C188.961 214.296 188.714 213.953 188.382 213.701C188.054 213.446 187.641 213.318 187.144 213.318C186.667 213.318 186.266 213.439 185.941 213.681C185.616 213.92 185.371 214.254 185.205 214.685C185.04 215.113 184.957 215.612 184.957 216.182ZM193.19 220.08C192.944 220.08 192.734 219.992 192.558 219.816C192.383 219.64 192.295 219.43 192.295 219.185C192.295 218.939 192.383 218.729 192.558 218.553C192.734 218.378 192.944 218.29 193.19 218.29C193.435 218.29 193.645 218.378 193.821 218.553C193.997 218.729 194.085 218.939 194.085 219.185C194.085 219.347 194.043 219.496 193.96 219.632C193.881 219.768 193.773 219.877 193.637 219.96C193.505 220.04 193.355 220.08 193.19 220.08ZM193.19 214.412C192.944 214.412 192.734 214.324 192.558 214.148C192.383 213.973 192.295 213.762 192.295 213.517C192.295 213.272 192.383 213.061 192.558 212.886C192.734 212.71 192.944 212.622 193.19 212.622C193.435 212.622 193.645 212.71 193.821 212.886C193.997 213.061 194.085 213.272 194.085 213.517C194.085 213.679 194.043 213.829 193.96 213.964C193.881 214.1 193.773 214.21 193.637 214.293C193.505 214.372 193.355 214.412 193.19 214.412ZM203.687 209.818V220H202.454V211.111H202.395L199.909 212.761V211.509L202.454 209.818H203.687ZM209.937 220.139C209.187 220.139 208.549 219.935 208.022 219.528C207.495 219.117 207.093 218.522 206.814 217.743C206.536 216.961 206.397 216.016 206.397 214.909C206.397 213.809 206.536 212.869 206.814 212.09C207.096 211.308 207.5 210.711 208.027 210.3C208.558 209.886 209.194 209.679 209.937 209.679C210.679 209.679 211.314 209.886 211.841 210.3C212.371 210.711 212.775 211.308 213.054 212.09C213.335 212.869 213.476 213.809 213.476 214.909C213.476 216.016 213.337 216.961 213.059 217.743C212.78 218.522 212.378 219.117 211.851 219.528C211.324 219.935 210.686 220.139 209.937 220.139ZM209.937 219.045C210.679 219.045 211.256 218.687 211.667 217.972C212.078 217.256 212.283 216.235 212.283 214.909C212.283 214.027 212.189 213.277 212 212.657C211.814 212.037 211.546 211.565 211.194 211.24C210.846 210.915 210.427 210.753 209.937 210.753C209.201 210.753 208.626 211.116 208.211 211.842C207.797 212.564 207.59 213.587 207.59 214.909C207.59 215.791 207.683 216.54 207.868 217.156C208.054 217.773 208.321 218.242 208.669 218.563C209.02 218.885 209.443 219.045 209.937 219.045ZM219.482 209.818H220.954L224.414 218.27H224.533L227.993 209.818H229.465V220H228.312V212.264H228.212L225.03 220H223.917L220.735 212.264H220.635V220H219.482V209.818ZM231.937 220V209.818H235.497C236.206 209.818 236.791 209.941 237.252 210.186C237.712 210.428 238.055 210.754 238.281 211.165C238.506 211.573 238.619 212.026 238.619 212.523C238.619 212.96 238.541 213.321 238.385 213.607C238.233 213.892 238.031 214.117 237.779 214.283C237.53 214.448 237.26 214.571 236.968 214.651V214.75C237.28 214.77 237.593 214.879 237.908 215.078C238.223 215.277 238.486 215.562 238.698 215.933C238.911 216.304 239.017 216.759 239.017 217.295C239.017 217.806 238.901 218.265 238.669 218.673C238.437 219.08 238.07 219.403 237.57 219.642C237.069 219.881 236.418 220 235.616 220H231.937ZM233.17 218.906H235.616C236.421 218.906 236.993 218.75 237.331 218.439C237.673 218.124 237.843 217.743 237.843 217.295C237.843 216.951 237.755 216.633 237.58 216.341C237.404 216.046 237.154 215.811 236.829 215.635C236.504 215.456 236.12 215.366 235.676 215.366H233.17V218.906ZM233.17 214.293H235.457C235.828 214.293 236.163 214.22 236.461 214.074C236.763 213.928 237.001 213.723 237.177 213.457C237.356 213.192 237.446 212.881 237.446 212.523C237.446 212.075 237.29 211.696 236.978 211.384C236.667 211.069 236.173 210.912 235.497 210.912H233.17V214.293Z" fill="#9C9CAA"/>
    <defs>
        <clipPath id="clip0_169_9263">
            <rect width="108" height="108" fill="white" transform="translate(92 64)"/>
        </clipPath>
    </defs>
</svg>