<svg width="144" height="42" viewBox="0 0 144 42" fill="none" xmlns="http://www.w3.org/2000/svg">
    <path d="M11.5898 40L9.08984 36.6619H8.19496V40H7.31428V32.7273H8.19496V35.8807H8.57848L11.4904 32.7273H12.5415L9.60121 35.9233L12.641 40H11.5898ZM13.5791 40V32.7273H16.1217C16.6284 32.7273 17.0462 32.8149 17.3753 32.9901C17.7044 33.1629 17.9494 33.3961 18.1104 33.6896C18.2714 33.9808 18.3518 34.304 18.3518 34.6591C18.3518 34.9716 18.2962 35.2296 18.1849 35.4332C18.076 35.6368 17.9316 35.7978 17.7517 35.9162C17.5741 36.0346 17.3812 36.1222 17.1729 36.179V36.25C17.3954 36.2642 17.6191 36.3423 17.844 36.4844C18.0689 36.6264 18.2572 36.83 18.4087 37.0952C18.5602 37.3603 18.6359 37.6847 18.6359 38.0682C18.6359 38.4328 18.5531 38.7607 18.3874 39.0518C18.2216 39.343 17.96 39.5739 17.6026 39.7443C17.2451 39.9148 16.7799 40 16.207 40H13.5791ZM14.4598 39.2188H16.207C16.7822 39.2188 17.1906 39.1075 17.4321 38.8849C17.6759 38.66 17.7979 38.3878 17.7979 38.0682C17.7979 37.822 17.7351 37.5947 17.6097 37.3864C17.4842 37.1757 17.3054 37.0076 17.0734 36.8821C16.8414 36.7543 16.5668 36.6903 16.2496 36.6903H14.4598V39.2188ZM14.4598 35.9233H16.0933C16.3585 35.9233 16.5976 35.8712 16.8107 35.767C17.0261 35.6629 17.1965 35.5161 17.322 35.3267C17.4499 35.1373 17.5138 34.9148 17.5138 34.6591C17.5138 34.3395 17.4025 34.0684 17.18 33.8459C16.9574 33.621 16.6047 33.5085 16.1217 33.5085H14.4598V35.9233ZM20.7637 32.7273V40H19.883V32.7273H20.7637ZM21.9318 33.5085V32.7273H27.3863V33.5085H25.0994V40H24.2187V33.5085H21.9318ZM32.8211 40L30.3211 36.6619H29.4262V40H28.5455V32.7273H29.4262V35.8807H29.8097L32.7217 32.7273H33.7728L30.8325 35.9233L33.8722 40H32.8211ZM40.6049 36.3636C40.6049 37.1307 40.4664 37.7936 40.1895 38.3523C39.9125 38.911 39.5325 39.3419 39.0495 39.6449C38.5666 39.9479 38.015 40.0994 37.3947 40.0994C36.7744 40.0994 36.2228 39.9479 35.7399 39.6449C35.2569 39.3419 34.877 38.911 34.6 38.3523C34.323 37.7936 34.1845 37.1307 34.1845 36.3636C34.1845 35.5966 34.323 34.9337 34.6 34.375C34.877 33.8163 35.2569 33.3854 35.7399 33.0824C36.2228 32.7794 36.7744 32.6278 37.3947 32.6278C38.015 32.6278 38.5666 32.7794 39.0495 33.0824C39.5325 33.3854 39.9125 33.8163 40.1895 34.375C40.4664 34.9337 40.6049 35.5966 40.6049 36.3636ZM39.7527 36.3636C39.7527 35.7339 39.6473 35.2024 39.4366 34.7692C39.2283 34.3359 38.9454 34.008 38.5879 33.7855C38.2328 33.563 37.835 33.4517 37.3947 33.4517C36.9544 33.4517 36.5555 33.563 36.198 33.7855C35.8429 34.008 35.56 34.3359 35.3493 34.7692C35.1409 35.2024 35.0368 35.7339 35.0368 36.3636C35.0368 36.9934 35.1409 37.5249 35.3493 37.9581C35.56 38.3913 35.8429 38.7192 36.198 38.9418C36.5555 39.1643 36.9544 39.2756 37.3947 39.2756C37.835 39.2756 38.2328 39.1643 38.5879 38.9418C38.9454 38.7192 39.2283 38.3913 39.4366 37.9581C39.6473 37.5249 39.7527 36.9934 39.7527 36.3636ZM41.8858 40V32.7273H44.4284C44.935 32.7273 45.3529 32.8149 45.6819 32.9901C46.011 33.1629 46.256 33.3961 46.417 33.6896C46.578 33.9808 46.6585 34.304 46.6585 34.6591C46.6585 34.9716 46.6029 35.2296 46.4916 35.4332C46.3827 35.6368 46.2383 35.7978 46.0583 35.9162C45.8808 36.0346 45.6878 36.1222 45.4795 36.179V36.25C45.702 36.2642 45.9258 36.3423 46.1507 36.4844C46.3756 36.6264 46.5638 36.83 46.7153 37.0952C46.8668 37.3603 46.9426 37.6847 46.9426 38.0682C46.9426 38.4328 46.8597 38.7607 46.694 39.0518C46.5283 39.343 46.2667 39.5739 45.9092 39.7443C45.5517 39.9148 45.0865 40 44.5136 40H41.8858ZM42.7664 39.2188H44.5136C45.0889 39.2188 45.4973 39.1075 45.7387 38.8849C45.9826 38.66 46.1045 38.3878 46.1045 38.0682C46.1045 37.822 46.0418 37.5947 45.9163 37.3864C45.7908 37.1757 45.6121 37.0076 45.3801 36.8821C45.1481 36.7543 44.8734 36.6903 44.5562 36.6903H42.7664V39.2188ZM42.7664 35.9233H44.4C44.6651 35.9233 44.9042 35.8712 45.1173 35.767C45.3327 35.6629 45.5032 35.5161 45.6287 35.3267C45.7565 35.1373 45.8204 34.9148 45.8204 34.6591C45.8204 34.3395 45.7091 34.0684 45.4866 33.8459C45.2641 33.621 44.9113 33.5085 44.4284 33.5085H42.7664V35.9233ZM48.1897 32.7273H49.0561V38.4517H49.1272L53.1044 32.7273H53.9567V40H53.076V34.2898H53.005L49.0419 40H48.1897V32.7273ZM55.519 32.7273H56.3854V38.4517H56.4565L60.4337 32.7273H61.286V40H60.4053V34.2898H60.3343L56.3712 40H55.519V32.7273ZM59.0985 30.9091H59.8798C59.8798 31.2926 59.7472 31.6063 59.482 31.8501C59.2169 32.094 58.857 32.2159 58.4025 32.2159C57.955 32.2159 57.5987 32.094 57.3336 31.8501C57.0708 31.6063 56.9394 31.2926 56.9394 30.9091H57.7207C57.7207 31.0937 57.7716 31.2559 57.8734 31.3956C57.9775 31.5353 58.1539 31.6051 58.4025 31.6051C58.6511 31.6051 58.8286 31.5353 58.9352 31.3956C59.0441 31.2559 59.0985 31.0937 59.0985 30.9091ZM65.4608 32.7273H66.5119L68.9835 38.7642H69.0687L71.5403 32.7273H72.5914V40H71.7676V34.4744H71.6966L69.4238 40H68.6284L66.3556 34.4744H66.2846V40H65.4608V32.7273ZM74.4555 40H73.5322L76.2027 32.7273H77.1118L79.7822 40H78.859L76.6857 33.8778H76.6288L74.4555 40ZM74.7965 37.1591H78.518V37.9403H74.7965V37.1591ZM80.7151 40V32.7273H83.1724C83.743 32.7273 84.2094 32.8303 84.5716 33.0362C84.9362 33.2398 85.2061 33.5156 85.3812 33.8636C85.5564 34.2116 85.644 34.5999 85.644 35.0284C85.644 35.4569 85.5564 35.8464 85.3812 36.1967C85.2084 36.5471 84.9409 36.8265 84.5787 37.0348C84.2165 37.2408 83.7525 37.3438 83.1866 37.3438H81.4253V36.5625H83.1582C83.5489 36.5625 83.8625 36.495 84.0993 36.3601C84.336 36.2251 84.5077 36.0429 84.6142 35.8132C84.7231 35.5812 84.7776 35.3196 84.7776 35.0284C84.7776 34.7372 84.7231 34.4768 84.6142 34.2472C84.5077 34.0175 84.3348 33.8376 84.0957 33.7074C83.8566 33.5748 83.5394 33.5085 83.144 33.5085H81.5957V40H80.7151ZM91.1383 40L88.6383 36.6619H87.7434V40H86.8627V32.7273H87.7434V35.8807H88.1269L91.0389 32.7273H92.09L89.1496 35.9233L92.1894 40H91.1383ZM93.1276 40V32.7273H97.5168V33.5085H94.0082V35.9659H97.2895V36.7472H94.0082V39.2188H97.5736V40H93.1276ZM98.5064 33.5085V32.7273H103.961V33.5085H101.674V40H100.793V33.5085H98.5064ZM110.56 32.7273V40H109.68V33.5085H106.015V40H105.134V32.7273H110.56ZM111.512 40V39.1903H111.725C112.028 39.1903 112.264 39.0933 112.432 38.8991C112.6 38.705 112.721 38.3913 112.794 37.9581C112.87 37.5249 112.921 36.9508 112.947 36.2358L113.074 32.7273H117.506V40H116.626V33.5085H113.912L113.799 36.4062C113.77 37.1686 113.701 37.8172 113.589 38.3523C113.478 38.8873 113.283 39.2957 113.003 39.5774C112.724 39.8591 112.317 40 111.782 40H111.512ZM119.066 40V32.7273H123.455V33.5085H119.947V35.9659H123.228V36.7472H119.947V39.2188H123.512V40H119.066ZM124.842 32.7273H125.709V38.4517H125.78L129.757 32.7273H130.609V40H129.729V34.2898H129.658L125.695 40H124.842V32.7273ZM128.422 30.9091H129.203C129.203 31.2926 129.071 31.6063 128.805 31.8501C128.54 32.094 128.18 32.2159 127.726 32.2159C127.278 32.2159 126.922 32.094 126.657 31.8501C126.394 31.6063 126.263 31.2926 126.263 30.9091H127.044C127.044 31.0937 127.095 31.2559 127.197 31.3956C127.301 31.5353 127.477 31.6051 127.726 31.6051C127.974 31.6051 128.152 31.5353 128.259 31.3956C128.367 31.2559 128.422 31.0937 128.422 30.9091ZM138.024 35H137.143C137.091 34.7467 137 34.5241 136.87 34.3324C136.742 34.1406 136.586 33.9796 136.401 33.8494C136.219 33.7169 136.016 33.6174 135.794 33.5511C135.571 33.4848 135.339 33.4517 135.098 33.4517C134.657 33.4517 134.259 33.563 133.901 33.7855C133.546 34.008 133.263 34.3359 133.052 34.7692C132.844 35.2024 132.74 35.7339 132.74 36.3636C132.74 36.9934 132.844 37.5249 133.052 37.9581C133.263 38.3913 133.546 38.7192 133.901 38.9418C134.259 39.1643 134.657 39.2756 135.098 39.2756C135.339 39.2756 135.571 39.2424 135.794 39.1761C136.016 39.1098 136.219 39.0116 136.401 38.8814C136.586 38.7488 136.742 38.5866 136.87 38.3949C137 38.2008 137.091 37.9782 137.143 37.7273H138.024C137.958 38.099 137.837 38.4316 137.662 38.7251C137.487 39.0187 137.269 39.2685 137.008 39.4744C136.748 39.678 136.456 39.8331 136.131 39.9396C135.809 40.0462 135.465 40.0994 135.098 40.0994C134.478 40.0994 133.926 39.9479 133.443 39.6449C132.96 39.3419 132.58 38.911 132.303 38.3523C132.026 37.7936 131.888 37.1307 131.888 36.3636C131.888 35.5966 132.026 34.9337 132.303 34.375C132.58 33.8163 132.96 33.3854 133.443 33.0824C133.926 32.7794 134.478 32.6278 135.098 32.6278C135.465 32.6278 135.809 32.6811 136.131 32.7876C136.456 32.8942 136.748 33.0504 137.008 33.2564C137.269 33.46 137.487 33.7086 137.662 34.0021C137.837 34.2933 137.958 34.6259 138.024 35Z" fill="white"/>
    <g clip-path="url(#clip0_1354_969)">
        <path d="M52.4147 14.7338C51.5905 13.7488 50.4457 13.0273 48.9805 12.5556C50.0794 12.0423 50.9189 11.3486 51.5294 10.4746C52.1247 9.60059 52.43 8.6017 52.43 7.49182C52.43 5.63278 51.5752 4.14832 49.8657 3.05231C48.1562 1.95631 45.6683 1.40137 42.4019 1.40137H30.9849C30.0386 1.40137 29.2754 2.09504 29.2754 2.9552V11.0851C29.7333 11.0157 30.6338 10.8353 31.3512 10.877C34.4039 11.0296 35.6402 12.6666 36.4645 14.4424V10.655V7.63056V6.17384H41.4403C43.8825 6.17384 45.1035 6.92301 45.1035 8.40747C45.1035 9.91968 43.8825 10.6688 41.4403 10.6688H38.0976C37.9297 10.6688 37.8076 10.7937 37.8076 10.9324V14.9696C37.8076 15.1222 37.945 15.2332 38.0976 15.2332H42.5393C45.073 15.2332 46.3551 16.024 46.3551 17.5917C46.3551 19.1733 45.0883 19.9502 42.5393 19.9502H38.0976C37.945 19.9502 37.8076 20.0612 37.8076 20.2138V24.4591C37.8076 24.5978 37.9297 24.7227 38.0976 24.7227H43.1346C46.5536 24.7227 49.1636 24.1677 50.9647 23.0579C52.7658 21.948 53.6663 20.3803 53.6663 18.327C53.6663 16.9119 53.2542 15.7327 52.4147 14.7338Z" fill="#B9E43D"/>
        <path d="M36.2963 17.2171C36.2657 17.2032 36.2199 17.2032 36.2047 17.1894C36.0368 17.1061 35.9299 16.9674 35.8689 16.8009C35.8841 16.8287 35.8841 16.8425 35.8994 16.8703C35.8841 16.8425 35.8689 16.8148 35.8689 16.787C35.8689 16.7732 35.8536 16.7732 35.8536 16.7593C35.8536 16.7454 35.8384 16.7315 35.8384 16.7177C35.7773 16.5928 35.701 16.4679 35.6552 16.3292C35.6247 16.2321 35.5789 16.1211 35.5484 16.024C35.5178 15.9685 35.4873 15.913 35.4568 15.8714C35.3499 15.7326 35.3347 15.5384 35.3805 15.3719C29.8857 13.9985 31.3509 15.9824 29.3057 16.6622V23.0717C29.3057 23.9735 30.0994 24.6949 31.0915 24.6949H36.4794V17.3142C36.3878 17.3003 36.342 17.2587 36.2963 17.2171Z" fill="#84BB2A"/>
        <path d="M30.5487 12.1564C25.9209 12.4045 27.7138 13.5213 22.0439 12.1426C22.0439 12.1426 22.3351 15.7963 27.346 16.8442C32.311 17.8782 28.9857 13.5765 36.4791 17.3267C36.2799 16.6098 34.8394 11.922 30.5487 12.1564Z" fill="#B9E43D"/>
        <path d="M20.7211 16.9951H6.15983C5.73246 16.9951 5.44245 17.3836 5.57982 17.7443C5.93088 18.7016 6.55668 19.4924 7.47249 20.1028C8.60198 20.8658 10.0215 21.2543 11.7005 21.2543C13.6236 21.2543 15.2416 20.741 16.5542 19.7144C16.8137 19.5062 17.1953 19.5201 17.4242 19.756L19.1032 21.5179C19.3016 21.726 19.3169 22.059 19.1032 22.2671C18.2942 23.044 17.3021 23.6405 16.1421 24.0567C14.7989 24.5423 13.2878 24.792 11.5936 24.792C9.44147 24.792 7.5488 24.4036 5.91562 23.6267C4.28243 22.8498 3.01557 21.7676 2.13029 20.3803C1.24501 18.9929 0.787109 17.4252 0.787109 15.6633C0.787109 13.9291 1.21449 12.3753 2.0845 10.9879C2.95451 9.60059 4.16032 8.51846 5.68667 7.74154C7.22827 6.96463 8.95304 6.57617 10.8915 6.57617C12.7994 6.57617 14.4937 6.96463 16.0047 7.72767C17.5006 8.49071 18.6758 9.57284 19.5153 10.9602C20.3548 12.3475 20.7822 13.9569 20.7822 15.7743C20.7822 16.0518 20.7669 16.468 20.7211 16.9951ZM7.18248 11.0851C6.34299 11.7371 5.77825 12.5556 5.48824 13.5545C5.3814 13.9014 5.70193 14.2343 6.08352 14.2343H15.6842C16.0658 14.2343 16.3863 13.9014 16.2795 13.5684C16.0047 12.5834 15.4553 11.7649 14.631 11.0989C13.6389 10.3081 12.3873 9.90581 10.8915 9.90581C9.4262 9.90581 8.18987 10.2943 7.18248 11.0851Z" fill="white"/>
        <path d="M77.4762 7.81068V23.5571C77.4762 24.1952 76.9115 24.7086 76.2093 24.7086H70.8519V22.7802C70.1192 23.5154 69.234 24.0704 68.2113 24.445C67.1887 24.8196 66.105 25.0138 64.9449 25.0138C62.3807 25.0138 60.3354 24.3201 58.809 22.9466C57.2827 21.5732 56.5195 19.506 56.5195 16.7591V7.81068C56.5195 7.1725 57.0843 6.65918 57.7864 6.65918H62.2128C62.9149 6.65918 63.4797 7.1725 63.4797 7.81068V15.7186C63.4797 17.0782 63.7544 18.0632 64.3191 18.6875C64.8839 19.3118 65.6928 19.617 66.7766 19.617C67.8755 19.617 68.7761 19.2702 69.4629 18.5626C70.165 17.8689 70.5008 16.7868 70.5008 15.344V7.81068C70.5008 7.1725 71.0656 6.65918 71.7677 6.65918H76.1941C76.8962 6.65918 77.4762 7.1725 77.4762 7.81068Z" fill="white"/>
        <path d="M89.9874 18.7292L88.4458 20.1582C88.3542 20.2414 88.3084 20.3385 88.3084 20.4634V24.2925C88.3084 24.5283 88.0947 24.7225 87.8352 24.7225H81.8062C81.5467 24.7225 81.333 24.5283 81.333 24.2925V0.430078C81.333 0.194229 81.5467 0 81.8062 0H87.8352C88.0947 0 88.3084 0.194229 88.3084 0.430078V11.9451C88.3084 12.3196 88.8121 12.5139 89.1021 12.2503L95.2685 6.78413C95.3601 6.70089 95.4669 6.65927 95.589 6.65927H102.549C102.961 6.65927 103.175 7.11709 102.885 7.38069L95.6959 14.1093C95.528 14.2619 95.5127 14.4978 95.6654 14.6643L103.755 24.0011C103.999 24.2786 103.785 24.6948 103.389 24.6948H96.1538C96.0164 24.6948 95.879 24.6393 95.7875 24.5283L90.6895 18.7431C90.5063 18.5488 90.1858 18.535 89.9874 18.7292Z" fill="white"/>
        <path d="M125.445 17.2864H111.006C111.296 18.2159 111.861 18.9373 112.715 19.4368C113.555 19.9362 114.608 20.1859 115.89 20.1859C116.837 20.1859 117.661 20.0611 118.363 19.8252C118.912 19.631 119.477 19.3397 120.042 18.9373C120.286 18.7708 120.622 18.7708 120.836 18.9789L123.72 21.712C123.949 21.9201 123.949 22.267 123.72 22.4751C121.812 24.1676 119.126 25.0139 115.661 25.0139C113.341 25.0139 111.296 24.6116 109.541 23.8208C107.785 23.0161 106.427 21.9063 105.45 20.4912C104.473 19.0761 104 17.4667 104 15.6632C104 13.8874 104.473 12.2919 105.404 10.8907C106.351 9.47562 107.648 8.37962 109.312 7.57495C110.975 6.77029 112.838 6.38184 114.913 6.38184C116.898 6.38184 118.683 6.75642 120.301 7.49171C121.919 8.22701 123.186 9.30914 124.132 10.7242C125.079 12.1393 125.537 13.8041 125.537 15.7326C125.552 15.7603 125.521 16.2875 125.445 17.2864ZM112.273 11.6815C111.555 12.2364 111.097 12.9856 110.899 13.9429H119.034C118.836 12.9856 118.378 12.2364 117.661 11.6815C116.943 11.1266 116.043 10.8491 114.974 10.8491C113.906 10.8491 113.005 11.1266 112.273 11.6815Z" fill="white"/>
        <path d="M143.66 23.6541C143.737 23.8344 143.66 24.0425 143.462 24.1396C142.943 24.3893 142.332 24.5975 141.63 24.7362C140.791 24.9165 139.89 24.9998 138.944 24.9998C136.349 24.9998 134.365 24.4171 132.976 23.2656C131.587 22.1141 130.885 20.3938 130.885 18.1047V12.4443C130.885 12.2223 130.686 12.0558 130.457 12.0558H128.427C128.183 12.0558 128 11.8755 128 11.6674V7.71343C128 7.49146 128.198 7.32498 128.427 7.32498H130.457C130.702 7.32498 130.885 7.14462 130.885 6.93652V3.0242C130.885 2.80222 131.083 2.63574 131.312 2.63574H137.402C137.646 2.63574 137.83 2.8161 137.83 3.0242V6.93652C137.83 7.15849 138.028 7.32498 138.257 7.32498H141.936C142.18 7.32498 142.363 7.50533 142.363 7.71343V11.6535C142.363 11.8755 142.164 12.042 141.936 12.042H138.257C138.013 12.042 137.83 12.2223 137.83 12.4304V18.0353C137.83 18.6735 138.013 19.1868 138.394 19.5475C138.776 19.9082 139.28 20.1024 139.921 20.1024C140.531 20.1024 141.096 19.9915 141.6 19.7695C141.844 19.6585 142.134 19.7417 142.226 19.9776L143.66 23.6541Z" fill="white"/>
    </g>
    <defs>
        <clipPath id="clip0_1354_969">
            <rect width="144" height="25" fill="white"/>
        </clipPath>
    </defs>
</svg>
