<svg width="48" height="48" viewBox="0 0 48 48" fill="none" xmlns="http://www.w3.org/2000/svg">
    <circle cx="24" cy="24" r="24" fill="#E9E9EF"/>
    <g clip-path="url(#clip0_1354_4921)">
        <path d="M9.00391 14.625C9.00391 13.6304 9.39899 12.6766 10.1023 11.9733C10.8055 11.2701 11.7593 10.875 12.7539 10.875H35.2539C36.2485 10.875 37.2023 11.2701 37.9056 11.9733C38.6088 12.6766 39.0039 13.6304 39.0039 14.625V33.375C39.0039 34.3696 38.6088 35.3234 37.9056 36.0266C37.2023 36.7299 36.2485 37.125 35.2539 37.125H12.7539C11.7593 37.125 10.8055 36.7299 10.1023 36.0266C9.39899 35.3234 9.00391 34.3696 9.00391 33.375V14.625ZM10.8789 31.5V33.375C10.8789 33.8723 11.0765 34.3492 11.4281 34.7008C11.7797 35.0525 12.2566 35.25 12.7539 35.25H35.2539C35.7512 35.25 36.2281 35.0525 36.5797 34.7008C36.9314 34.3492 37.1289 33.8723 37.1289 33.375V26.8125L30.047 23.1619C29.8712 23.0738 29.6721 23.0432 29.478 23.0745C29.2838 23.1058 29.1044 23.1974 28.9652 23.3363L22.0089 30.2925L17.0214 26.97C16.8413 26.8501 16.6253 26.7962 16.41 26.8174C16.1947 26.8386 15.9934 26.9336 15.8402 27.0863L10.8789 31.5ZM20.2539 19.3125C20.2539 18.5666 19.9576 17.8512 19.4301 17.3238C18.9027 16.7963 18.1873 16.5 17.4414 16.5C16.6955 16.5 15.9801 16.7963 15.4527 17.3238C14.9252 17.8512 14.6289 18.5666 14.6289 19.3125C14.6289 20.0584 14.9252 20.7738 15.4527 21.3012C15.9801 21.8287 16.6955 22.125 17.4414 22.125C18.1873 22.125 18.9027 21.8287 19.4301 21.3012C19.9576 20.7738 20.2539 20.0584 20.2539 19.3125Z" fill="#D7D7E5"/>
    </g>
    <defs>
        <clipPath id="clip0_1354_4921">
            <rect width="30" height="30" fill="white" transform="translate(9 9)"/>
        </clipPath>
    </defs>
</svg>
